HIERARCHY
ROOT root
{
	OFFSET	0	13.1	24.9
	CHANNELS 6  Xposition Yposition Zposition Xrotation Yrotation Zrotation
	JOINT spine_1
	{
		OFFSET	0	9.99999	0
		CHANNELS 3  Xrotation Yrotation Zrotation
		JOINT spine_2
		{
			OFFSET	0	112	-10
			CHANNELS 3  Xrotation Yrotation Zrotation
			JOINT spine_3
			{
				OFFSET	0	206.5	19.3
				CHANNELS 3  Xrotation Yrotation Zrotation
				JOINT spine_4
				{
					OFFSET	0	110.4	14.6
					CHANNELS 3  Xrotation Yrotation Zrotation
					JOINT neck_1
					{
						OFFSET	0	71.8	-50.3
						CHANNELS 3  Xrotation Yrotation Zrotation
						JOINT neck_2
						{
							OFFSET	0	86.2	-25.8
							CHANNELS 3  Xrotation Yrotation Zrotation
							JOINT head_ee
							{
								OFFSET	0	179.8	-8.7
								CHANNELS 3  Xrotation Yrotation Zrotation
								End Site
								{
									OFFSET	1	0	0
								}
							}
						}
					}
					JOINT left_clavicle
					{
						OFFSET	-43.2	22.4	-70.8
						CHANNELS 3  Xrotation Yrotation Zrotation
						JOINT left_shoulder
						{
							OFFSET	-93.9	-5.79999	48.7
							CHANNELS 3  Xrotation Yrotation Zrotation
							JOINT left_elbow
							{
								OFFSET	-291.4	-30.8	15.2
								CHANNELS 3  Xrotation Yrotation Zrotation
								JOINT left_lowarm_twist
								{
									OFFSET	-110.7	-3.89999	13.6
									CHANNELS 3  Xrotation Yrotation Zrotation
									JOINT left_hand
									{
										OFFSET	-110.7	-3.89999	13.6
										CHANNELS 3  Xrotation Yrotation Zrotation
										JOINT left_ee
										{
											OFFSET	-80.8	-5.10001	12.1
											CHANNELS 3  Xrotation Yrotation Zrotation
											End Site
											{
												OFFSET	1	0	0
											}
										}
									}
								}
							}
						}
					}
					JOINT right_clavicle
					{
						OFFSET	43.2	22.4	-70.8
						CHANNELS 3  Xrotation Yrotation Zrotation
						JOINT right_shoulder
						{
							OFFSET	93.9	-5.79999	48.7
							CHANNELS 3  Xrotation Yrotation Zrotation
							JOINT right_elbow
							{
								OFFSET	291.4	-30.8	15.2
								CHANNELS 3  Xrotation Yrotation Zrotation
								JOINT right_lowarm_twist
								{
									OFFSET	110.7	-3.89999	13.6
									CHANNELS 3  Xrotation Yrotation Zrotation
									JOINT right_hand
									{
										OFFSET	110.7	-3.89999	13.6
										CHANNELS 3  Xrotation Yrotation Zrotation
										JOINT right_ee
										{
											OFFSET	80.8	-5.10001	12.1
											CHANNELS 3  Xrotation Yrotation Zrotation
											End Site
											{
												OFFSET	1	0	0
											}
										}
									}
								}
							}
						}
					}
				}
			}
		}
	}
	JOINT left_hip
	{
		OFFSET	-82.8	-127.5	0.300001
		CHANNELS 3  Xrotation Yrotation Zrotation
		JOINT left_knee
		{
			OFFSET	-28.2	-396.7	2.2
			CHANNELS 3  Xrotation Yrotation Zrotation
			JOINT left_ankle
			{
				OFFSET	-11.7	-411.3	35.4
				CHANNELS 3  Xrotation Yrotation Zrotation
				JOINT left_toes
				{
					OFFSET	0	-60	-88.6
					CHANNELS 3  Xrotation Yrotation Zrotation
					JOINT left_foot_ee
					{
						OFFSET	-22.5	-16.5	-42.2
						CHANNELS 3  Xrotation Yrotation Zrotation
						End Site
						{
							OFFSET	1	0	0
						}
					}
				}
			}
		}
	}
	JOINT right_hip
	{
		OFFSET	82.8	-127.5	0.300001
		CHANNELS 3  Xrotation Yrotation Zrotation
		JOINT right_knee
		{
			OFFSET	28.2	-396.7	2.2
			CHANNELS 3  Xrotation Yrotation Zrotation
			JOINT right_ankle
			{
				OFFSET	11.7	-411.3	35.4
				CHANNELS 3  Xrotation Yrotation Zrotation
				JOINT right_toes
				{
					OFFSET	0	-60	-88.6
					CHANNELS 3  Xrotation Yrotation Zrotation
					JOINT right_foot_ee
					{
						OFFSET	22.5	-16.5	-42.2
						CHANNELS 3  Xrotation Yrotation Zrotation
						End Site
						{
							OFFSET	1	0	0
						}
					}
				}
			}
		}
	}
}
MOTION
Frames: 12
Frame Time: 0.02
3030.08 728.446 -1522.6 25.0002 69.707 -29.8829 -2.53365 1.13823 6.66452 -2.50925 0.71283 6.72307 -2.39549 -0.999354 6.68665 -2.45781 0.0667142 6.76025 -10.1161 16.2514 -11.3682 -10.213 38.1502 -6.89417 -0.0 0.0 -0.0 -5.91174 9.11855 -9.37245 17.0362 -19.7422 58.7732 1.1484 -29.6339 0.303793 -41.2247 -3.08234 4.14723 4.86291 14.8521 39.8207 -0.0 0.0 -0.0 12.426 13.7259 -25.2105 -18.0251 40.8793 -68.4133 0.609262 16.7945 -0.0899389 -66.7526 6.13247 -5.26131 -6.19898 -20.611 29.9166 0.0 0.0 0.0 0.176524 0.390797 5.88838 -23.7849 0.231536 3.6165 31.6774 24.369 -4.28264 -26.4065 0.0 0.0 -0.0 0.0 -0.0 -0.630619 25.8237 2.07879 -50.6039 1.27517 -7.41292 38.7136 -25.4262 5.05622 30.2861 -0.0 -0.0 0.0 0.0 0.0 
3021.06 729.703 -1521.36 24.3413 68.5069 -29.6199 -2.53312 1.09861 6.84616 -2.50732 0.661813 6.90183 -2.39621 -1.09439 6.84683 -2.46156 -0.00202422 6.93333 -10.6623 16.4464 -10.9878 -10.9082 38.2339 -6.22125 -0.0 0.0 -0.0 -6.04387 8.25827 -9.83529 18.128 -19.9358 57.2273 1.22775 -31.3063 0.344033 -41.2751 -3.08778 4.15072 4.84217 14.7308 39.6154 -0.0 0.0 -0.0 12.3713 12.2631 -25.1104 -17.4693 41.3193 -68.2658 0.572841 15.8424 -0.0797052 -66.596 6.11259 -5.25874 -6.10557 -20.5816 29.2874 0.0 0.0 0.0 0.0774959 0.650896 6.51454 -24.4691 0.215884 3.72033 32.0664 25.7777 -4.36292 -25.9623 0.0 0.0 -0.0 0.0 -0.0 2.08838 26.037 0.769402 -50.2484 1.24387 -7.36799 38.704 -24.7152 5.03276 29.834 -0.0 -0.0 0.0 0.0 0.0 
3013.76 731.246 -1515.26 21.9037 67.5469 -26.9999 -2.80756 1.18078 6.80136 -2.78216 0.746649 6.86231 -2.65939 -1.03319 6.82523 -2.72432 0.0550262 6.9024 -9.19302 16.1038 -12.0575 -9.04071 38.3884 -8.03093 -0.0 0.0 -0.0 -6.20469 7.44757 -10.3425 19.1291 -19.8371 55.5217 1.54576 -37.4395 0.523831 -41.3186 -3.09247 4.15374 4.65052 14.5311 37.9755 -0.0 0.0 -0.0 12.5085 14.6687 -25.3752 -18.3896 41.3007 -66.9299 0.554793 15.3673 -0.0748502 -66.792 6.13747 -5.26195 -6.24967 -20.5298 30.343 0.0 0.0 0.0 0.562591 0.44058 6.08573 -23.8061 0.231068 3.61972 31.994 24.579 -4.32328 -26.0502 0.0 0.0 -0.0 0.0 -0.0 6.20827 27.7424 -0.930455 -48.9399 1.13111 -7.20103 37.2868 -26.2269 4.93829 28.9152 -0.0 -0.0 0.0 0.0 0.0 
3002.21 738.704 -1509.9 18.4739 66.5815 -23.5459 -2.67278 1.05834 6.71208 -2.64796 0.63009 6.76548 -2.54254 -1.108 6.70409 -2.60519 -0.0378559 6.79452 -11.4554 16.6637 -11.1812 -11.8762 38.7155 -6.00376 -0.0 0.0 -0.0 -6.38992 8.17787 -10.4939 20.0777 -20.4122 54.7701 1.62201 -38.7788 0.570898 -42.8401 -3.25815 4.2571 4.34621 14.2203 35.4477 -0.0 0.0 -0.0 11.9858 12.7061 -24.2246 -18.2584 41.7149 -66.4196 0.560829 15.5264 -0.0764579 -66.3029 6.07538 -5.25378 -5.74647 -18.3685 28.5684 0.0 0.0 0.0 -0.905929 1.72417 6.8229 -19.2418 0.303889 2.92332 30.6472 25.3307 -4.19002 -28.7806 0.0 0.0 -0.0 0.0 -0.0 10.2115 25.189 -1.12662 -47.0793 0.977419 -6.95933 31.6164 -26.9099 4.3437 26.2814 -0.0 -0.0 0.0 0.0 0.0 
2987.37 739.052 -1506.94 20.2805 65.1544 -25.4748 -2.72063 1.08255 6.67978 -2.69607 0.656291 6.73479 -2.58773 -1.07994 6.6802 -2.64994 -0.0138824 6.76653 -11.6028 16.7468 -10.4838 -12.095 38.4173 -5.22343 -0.0 0.0 -0.0 -6.417 6.66667 -10.9438 21.0621 -20.6456 53.8721 1.50067 -36.6243 0.496679 -41.367 -3.0977 4.1571 4.76145 14.5531 38.8956 -0.0 0.0 -0.0 12.0664 12.7702 -24.4069 -19.3242 41.2962 -65.2367 0.53526 14.8505 -0.0697586 -66.4317 6.09172 -5.25598 -6.129 -20.5495 29.4779 0.0 0.0 0.0 -1.53196 0.900523 7.72059 -23.6103 0.235332 3.58997 32.6307 25.2827 -4.4125 -25.4119 0.0 0.0 -0.0 0.0 -0.0 10.9558 25.6041 -1.86281 -47.6121 1.02062 -7.02904 37.0715 -24.65 4.86725 28.6361 -0.0 -0.0 0.0 0.0 0.0 
2970.8 739.088 -1501.75 18.826 64.787 -24.5826 -2.67978 1.07746 6.71757 -2.65494 0.648822 6.77218 -2.54704 -1.092 6.71523 -2.6099 -0.0203029 6.80301 -12.7456 17.4541 -8.53327 -13.6167 38.4697 -2.58171 -0.0 0.0 -0.0 -6.64069 9.34014 -10.6391 22.3397 -19.8308 53.25 2.18325 -47.2366 0.954762 -43.6743 -3.35013 4.31189 4.57701 15.871 37.7166 -0.0 0.0 -0.0 11.6376 12.9109 -23.4308 -19.8612 41.2161 -65.7095 0.53052 14.7248 -0.068549 -66.19 6.06106 -5.25182 -6.36441 -21.0663 30.6907 0.0 0.0 0.0 -3.00792 7.29234 8.51896 -23.8141 0.230893 3.62093 28.8398 23.8426 -3.94604 -25.7245 0.0 0.0 -0.0 0.0 -0.0 16.3279 25.4338 -3.64369 -36.345 0.250763 -5.47982 30.9044 -24.5728 4.20049 22.7725 -0.0 -0.0 0.0 0.0 0.0 
2955.04 736.426 -1489.22 14.19 63.7067 -21.0541 -2.28249 1.04358 6.66565 -2.25801 0.618297 6.71822 -2.15752 -1.06247 6.66267 -2.21941 0.000620453 6.74648 -15.2341 18.253 -6.31466 -16.7513 38.5663 0.906092 -0.0 0.0 -0.0 -5.31185 7.74704 -8.61892 23.0427 -14.6422 52.056 2.81788 -54.3725 1.44755 -46.5745 -3.67591 4.49186 3.64031 16.6849 30.7345 -0.0 0.0 -0.0 11.3318 13.3854 -22.729 -20.7415 40.7654 -64.8693 0.541297 15.0105 -0.0713141 -65.8249 6.01476 -5.24529 -6.04593 -19.0662 30.1267 0.0 0.0 0.0 -5.75959 18.9477 8.25852 -23.6472 0.234534 3.59559 27.4864 6.32224 -3.61348 -27.007 0.0 0.0 -0.0 0.0 -0.0 17.9051 23.9291 -1.83232 -32.6162 0.0649981 -4.93806 27.0051 -21.6288 3.68751 22.2613 -0.0 -0.0 0.0 0.0 0.0 
2939.29 735.462 -1487.76 14.308 63.9508 -21.3141 -1.95835 0.947196 6.59447 -1.93433 0.526601 6.6411 -1.84838 -1.09712 6.57129 -1.90858 -0.047936 6.66168 -14.0996 17.6609 -7.71812 -15.2868 38.3081 -1.15187 -0.0 0.0 -0.0 -6.30854 8.49891 -10.2586 22.961 -19.3492 52.5202 2.93658 -55.4833 1.54471 -43.6212 -3.34425 4.30844 4.59157 14.9906 37.614 -0.0 0.0 -0.0 11.1801 13.0576 -22.3956 -21.6441 40.7217 -65.0555 0.499817 13.9066 -0.0609569 -65.7108 6.0003 -5.24319 -6.34969 -21.1556 30.5089 0.0 0.0 0.0 -4.7154 8.21807 11.309 -23.8288 0.230568 3.62317 28.689 22.2394 -3.89564 -25.1405 0.0 0.0 -0.0 0.0 -0.0 20.2921 25.4071 -4.09874 -24.8298 -0.207133 -3.77499 23.467 -24.5564 3.3079 20.0615 -0.0 -0.0 0.0 0.0 0.0 
2924.81 735.388 -1485.05 11.9731 63.4918 -19.0946 -1.68589 0.971827 6.44913 -1.66295 0.56037 6.49762 -1.57703 -0.998547 6.44506 -1.63494 0.0296125 6.52157 -13.9033 17.5584 -8.24215 -15.0314 38.4361 -1.77447 -0.0 0.0 -0.0 -5.87485 8.88659 -9.36499 24.31 -17.1451 51.6737 3.3427 -58.8581 1.88611 -44.5383 -3.44623 4.36722 4.3158 14.6486 35.3224 -0.0 0.0 -0.0 11.121 13.4084 -22.2538 -22.9862 40.4548 -64.4943 0.48894 13.6154 -0.0583697 -65.3596 5.95582 -5.23653 -6.34546 -21.0965 30.5306 0.0 0.0 0.0 -5.81325 11.9892 12.2191 -23.2986 0.241905 3.54259 31.2263 21.3765 -4.16588 -24.8013 0.0 0.0 -0.0 0.0 -0.0 21.4009 25.3709 -4.02336 -21.3068 -0.277818 -3.23909 20.4672 -24.6218 2.92392 18.2928 -0.0 -0.0 0.0 0.0 0.0 
2917.02 738.898 -1478.1 9.05737 63.4054 -16.1794 -1.60765 0.944998 6.39416 -1.58509 0.53707 6.44107 -1.50327 -0.99956 6.3859 -1.56012 0.0193275 6.4633 -17.4002 17.8491 -8.745 -19.3116 39.0077 -0.639498 -0.0 0.0 -0.0 -4.93752 8.53508 -7.75195 25.8681 -15.7554 51.0749 3.51849 -60.1406 2.03759 -46.3221 -3.6472 4.47686 2.69389 16.9607 24.1499 -0.0 0.0 -0.0 11.406 15.4975 -22.8271 -24.2093 40.0488 -63.6064 0.489654 13.6346 -0.0585379 -66.4072 6.08862 -5.25557 -6.76621 -20.6973 33.9286 0.0 0.0 0.0 -8.5232 14.5569 13.1236 -17.5216 0.316908 2.65971 29.9559 19.0727 -3.98377 -25.308 0.0 0.0 -0.0 0.0 -0.0 23.0525 23.551 -3.69692 -15.877 -0.321949 -2.40744 13.5797 -19.819 1.9489 15.9418 -0.0 -0.0 0.0 0.0 0.0 
2901.2 739.046 -1478.7 7.47392 63.6373 -15.049 -1.52999 0.945682 6.47556 -1.50684 0.532606 6.52234 -1.42476 -1.01435 6.46521 -1.48303 0.017168 6.54394 -15.3531 17.7158 -7.89549 -16.8057 38.4484 -0.771507 -0.0 0.0 -0.0 -5.10431 8.65836 -8.02453 26.5812 -15.4813 51.2577 4.07598 -63.6338 2.52953 -45.1441 -3.5141 4.40515 4.21126 14.6514 34.506 -0.0 0.0 -0.0 11.2451 14.0566 -22.5145 -23.8648 40.3394 -64.0033 0.467541 13.0403 -0.0534366 -65.0388 5.91522 -5.23021 -6.43523 -21.3451 30.947 0.0 0.0 0.0 -7.37251 13.1788 13.2951 -20.3965 0.290714 3.1 30.057 20.4341 -4.01796 -25.3288 0.0 0.0 -0.0 0.0 -0.0 25.036 25.0553 -4.75419 -13.6536 -0.317251 -2.06637 17.4443 -24.4934 2.52082 16.4866 -0.0 -0.0 0.0 0.0 0.0 
2884.96 733.9 -1474.58 7.02003 64.9063 -14.8588 -1.41271 0.723233 6.3763 -1.39016 0.316878 6.40922 -1.33547 -1.18872 6.30641 -1.39088 -0.179963 6.41451 -15.523 17.4256 -8.44306 -16.9538 38.1993 -1.35116 -0.0 0.0 -0.0 -4.78892 8.51794 -7.48753 27.5895 -14.8413 51.5997 4.43058 -65.4837 2.84979 -45.6882 -3.5754 4.43861 3.80616 14.6216 31.413 -0.0 0.0 -0.0 11.2836 14.0121 -22.6027 -24.8143 40.0901 -63.3326 0.46835 13.0621 -0.0536193 -64.9426 5.90306 -5.22828 -6.4633 -21.374 31.1202 0.0 0.0 0.0 -8.58602 15.5558 14.0986 -19.6713 0.299404 2.98907 29.1944 18.3982 -3.88827 -26.1805 0.0 0.0 -0.0 0.0 -0.0 26.5672 25.1319 -5.24352 -11.1091 -0.295643 -1.67658 15.3777 -24.5002 2.23963 15.4805 -0.0 -0.0 0.0 0.0 0.0 
